<?xml version="1.0" encoding="UTF-8" standalone="no"?><!DOCTYPE svg PUBLIC "-//W3C//DTD SVG 1.1//EN" "http://www.w3.org/Graphics/SVG/1.1/DTD/svg11.dtd"><svg width="100%" height="100%" viewBox="0 0 392 60" version="1.1" xmlns="http://www.w3.org/2000/svg" xmlns:xlink="http://www.w3.org/1999/xlink" xml:space="preserve" xmlns:serif="http://www.serif.com/" style="fill-rule:evenodd;clip-rule:evenodd;stroke-linejoin:round;stroke-miterlimit:1.41421;"><g><path d="M39.81,59.715l-13.217,0l0,-6.608c-0.531,4.405 -2.76,6.608 -6.688,6.608l-6.608,0c-3.61,0 -6.728,-1.3 -9.356,-3.901c-2.627,-2.601 -3.941,-5.733 -3.941,-9.395l0,-19.905c0,-3.61 1.314,-6.715 3.941,-9.316c2.628,-2.601 5.746,-3.901 9.356,-3.901l13.296,0l0,-13.297l13.217,0l0,59.715Zm-13.217,-39.81l-6.688,0c-1.805,0 -3.357,0.65 -4.658,1.951c-1.3,1.3 -1.95,2.853 -1.95,4.658l0,19.905c0,1.804 0.65,3.37 1.95,4.697c1.301,1.327 2.853,1.991 4.658,1.991c1.858,0 3.437,-0.664 4.737,-1.991c1.301,-1.327 1.951,-2.893 1.951,-4.697l0,-26.514Z" style="fill-rule:nonzero;"/><path d="M92.917,39.81l-26.514,0l0,6.609c0,1.804 0.651,3.37 1.951,4.697c1.3,1.327 2.853,1.991 4.658,1.991l6.688,0c4.406,0 6.608,-2.23 6.608,-6.688l6.609,0c-1.009,8.864 -5.414,13.296 -13.217,13.296l-13.297,0c-3.609,0 -6.728,-1.3 -9.355,-3.901c-2.628,-2.601 -3.941,-5.733 -3.941,-9.395l0,-19.905c0,-3.61 1.313,-6.715 3.941,-9.316c2.627,-2.601 5.746,-3.901 9.355,-3.901l13.297,0c3.609,0 6.715,1.3 9.315,3.901c2.601,2.601 3.902,5.706 3.902,9.316l0,13.296Zm-26.514,-6.608l13.297,0l0,-6.688c0,-1.805 -0.65,-3.358 -1.951,-4.658c-1.3,-1.301 -2.879,-1.951 -4.737,-1.951c-1.805,0 -3.358,0.65 -4.658,1.951c-1.3,1.3 -1.951,2.853 -1.951,4.658l0,6.688Z" style="fill-rule:nonzero;"/><path d="M132.807,13.297l13.217,0l0,23.726c0,6.211 -2.216,11.545 -6.649,16.004c-4.432,4.459 -9.753,6.688 -15.964,6.688l-17.198,0l0,-46.418l13.297,0l0,39.81l6.609,0c1.857,0 3.436,-0.664 4.737,-1.991c1.3,-1.327 1.951,-2.893 1.951,-4.697l0,-33.122Z" style="fill-rule:nonzero;"/><path d="M172.617,59.715l-13.297,0l0,-46.418l13.297,0l0,13.217c0.531,-4.406 1.897,-7.71 4.1,-9.913c2.203,-2.203 5.268,-3.304 9.196,-3.304l6.609,0l0,13.217l-13.297,0c-1.804,0 -3.357,0.65 -4.658,1.95c-1.3,1.301 -1.95,2.88 -1.95,4.738l0,26.513Z" style="fill-rule:nonzero;"/><path d="M225.724,33.202l0,-6.688c0,-1.805 -0.651,-3.358 -1.951,-4.658c-1.301,-1.301 -2.88,-1.951 -4.738,-1.951l-6.608,0c-3.928,0 -6.131,2.203 -6.609,6.609l-6.688,0c1.062,-8.812 5.494,-13.217 13.297,-13.217l13.297,0c3.609,0 6.714,1.3 9.315,3.901c2.601,2.601 3.901,5.706 3.901,9.316l0,33.201l-13.216,0l0,-6.608c-0.531,4.405 -2.761,6.608 -6.689,6.608l-6.608,0c-3.61,0 -6.728,-1.3 -9.355,-3.901c-2.628,-2.601 -3.942,-5.733 -3.942,-9.395c0,-3.61 1.314,-6.715 3.942,-9.316c2.627,-2.601 5.745,-3.901 9.355,-3.901l13.297,0Zm0,6.608l-6.689,0c-1.804,0 -3.357,0.65 -4.657,1.951c-1.301,1.3 -1.951,2.853 -1.951,4.658c0,1.804 0.65,3.37 1.951,4.697c1.3,1.327 2.853,1.991 4.657,1.991c1.858,0 3.437,-0.664 4.738,-1.991c1.3,-1.327 1.951,-2.893 1.951,-4.697l0,-6.609Z" style="fill-rule:nonzero;"/><path d="M292.047,59.715l-13.217,0l0,-6.608c-0.531,4.405 -2.76,6.608 -6.688,6.608l-6.608,0c-3.61,0 -6.728,-1.3 -9.356,-3.901c-2.627,-2.601 -3.941,-5.733 -3.941,-9.395l0,-19.905c0,-3.61 1.314,-6.715 3.941,-9.316c2.628,-2.601 5.746,-3.901 9.356,-3.901l13.296,0l0,-13.297l13.217,0l0,59.715Zm-13.217,-39.81l-6.688,0c-1.805,0 -3.357,0.65 -4.658,1.951c-1.3,1.3 -1.95,2.853 -1.95,4.658l0,19.905c0,1.804 0.65,3.37 1.95,4.697c1.301,1.327 2.853,1.991 4.658,1.991c1.858,0 3.437,-0.664 4.738,-1.991c1.3,-1.327 1.95,-2.893 1.95,-4.697l0,-26.514Z" style="fill-rule:nonzero;"/><path d="M331.937,33.202l0,-6.688c0,-1.805 -0.65,-3.358 -1.951,-4.658c-1.3,-1.301 -2.879,-1.951 -4.737,-1.951l-6.609,0c-3.928,0 -6.13,2.203 -6.608,6.609l-6.688,0c1.061,-8.812 5.494,-13.217 13.296,-13.217l13.297,0c3.609,0 6.715,1.3 9.316,3.901c2.6,2.601 3.901,5.706 3.901,9.316l0,33.201l-13.217,0l0,-6.608c-0.531,4.405 -2.76,6.608 -6.688,6.608l-6.609,0c-3.609,0 -6.728,-1.3 -9.355,-3.901c-2.627,-2.601 -3.941,-5.733 -3.941,-9.395c0,-3.61 1.314,-6.715 3.941,-9.316c2.627,-2.601 5.746,-3.901 9.355,-3.901l13.297,0Zm0,6.608l-6.688,0c-1.805,0 -3.357,0.65 -4.658,1.951c-1.3,1.3 -1.951,2.853 -1.951,4.658c0,1.804 0.651,3.37 1.951,4.697c1.301,1.327 2.853,1.991 4.658,1.991c1.858,0 3.437,-0.664 4.737,-1.991c1.301,-1.327 1.951,-2.893 1.951,-4.697l0,-6.609Z" style="fill-rule:nonzero;"/><path d="M371.747,59.715l-13.296,0l0,-46.418l13.296,0l0,13.217c0.531,-4.406 1.898,-7.71 4.101,-9.913c2.202,-2.203 5.268,-3.304 9.196,-3.304l6.608,0l0,13.217l-13.296,0c-1.805,0 -3.358,0.65 -4.658,1.95c-1.301,1.301 -1.951,2.88 -1.951,4.738l0,26.513Z" style="fill-rule:nonzero;"/></g></svg>